<?xml version="1.0" standalone="no"?>
<!DOCTYPE svg PUBLIC "-//W3C//DTD SVG 20010904//EN"
 "http://www.w3.org/TR/2001/REC-SVG-20010904/DTD/svg10.dtd">
<svg version="1.0" xmlns="http://www.w3.org/2000/svg"
 width="5680.000000pt" height="5680.000000pt" viewBox="0 0 5680.000000 5680.000000"
 preserveAspectRatio="xMidYMid meet">
<metadata>
Created by potrace 1.14, written by Peter Selinger 2001-2017
</metadata>
<g transform="translate(0.000000,5680.000000) scale(0.100000,-0.100000)"
fill="#000000" stroke="none">
<path d="M32900 42399 c-273 -32 -519 -155 -721 -359 -135 -137 -236 -303
-288 -476 -25 -80 -1213 -3295 -1217 -3292 -1 2 -343 487 -759 1078 -417 591
-781 1104 -810 1140 -132 161 -332 282 -555 336 -72 18 -303 19 -5635 22
-3979 2 -5588 0 -5657 -8 -53 -6 -130 -20 -169 -31 -253 -70 -485 -256 -614
-491 -20 -37 -775 -2083 -1720 -4660 l-1683 -4593 -1954 -6 c-1074 -3 -1984
-9 -2023 -12 -38 -4 -194 -12 -345 -17 -151 -6 -284 -15 -295 -19 -11 -5 -126
-16 -255 -25 -299 -21 -739 -64 -765 -76 -11 -5 -45 -12 -75 -15 -173 -20
-487 -66 -500 -74 -9 -5 -36 -12 -60 -15 -124 -20 -426 -79 -435 -86 -5 -4
-37 -13 -70 -20 -109 -21 -310 -70 -330 -80 -19 -10 -255 -77 -305 -87 -14 -3
-30 -9 -35 -14 -6 -4 -60 -24 -120 -44 -59 -19 -113 -39 -119 -44 -6 -4 -38
-18 -71 -29 -128 -45 -172 -62 -233 -91 -34 -17 -66 -31 -70 -31 -7 0 -164
-78 -390 -195 -35 -18 -71 -39 -80 -46 -20 -17 -44 -30 -123 -70 -32 -17 -59
-34 -59 -38 0 -4 -17 -16 -37 -27 -45 -23 -221 -136 -246 -159 -10 -9 -35 -26
-55 -38 -20 -11 -72 -47 -114 -79 -42 -32 -82 -58 -88 -58 -6 0 -13 -6 -16
-14 -3 -8 -37 -36 -75 -62 -38 -25 -69 -50 -69 -54 0 -5 -15 -17 -32 -28 -70
-41 -440 -375 -647 -583 -157 -158 -488 -532 -502 -567 -5 -12 -15 -25 -23
-28 -8 -3 -27 -24 -41 -47 -15 -23 -38 -53 -52 -67 -32 -33 -173 -227 -173
-238 0 -5 -12 -19 -26 -33 -14 -13 -32 -36 -39 -50 -8 -14 -57 -87 -110 -162
-52 -75 -95 -140 -95 -144 0 -4 -27 -48 -60 -98 -33 -49 -60 -94 -60 -99 0 -5
-12 -25 -26 -44 -15 -19 -40 -60 -56 -91 -17 -31 -36 -63 -43 -71 -7 -8 -26
-42 -42 -75 -17 -33 -70 -139 -119 -236 -133 -261 -214 -438 -214 -464 0 -7
-7 -18 -15 -25 -8 -7 -19 -26 -24 -44 -16 -55 -70 -200 -82 -220 -6 -10 -29
-73 -50 -140 -22 -67 -46 -134 -53 -151 -8 -16 -31 -91 -51 -165 -20 -74 -40
-139 -44 -145 -8 -10 -17 -47 -61 -240 -11 -49 -25 -99 -30 -110 -10 -21 -49
-224 -75 -390 -9 -55 -20 -109 -25 -120 -20 -44 -75 -572 -86 -833 -4 -84 -11
-155 -16 -158 -12 -8 -10 -771 2 -779 5 -3 10 -43 10 -88 0 -114 27 -478 50
-687 31 -272 32 -284 40 -295 4 -5 11 -35 15 -65 15 -120 77 -473 85 -489 5
-9 25 -92 45 -186 20 -93 40 -179 45 -190 11 -24 42 -133 65 -230 9 -38 23
-83 30 -100 8 -16 33 -93 55 -170 23 -77 46 -145 50 -150 5 -6 24 -59 44 -118
20 -59 47 -131 60 -160 13 -29 31 -75 40 -102 10 -27 30 -76 46 -109 16 -34
43 -97 60 -141 18 -44 38 -87 46 -96 8 -8 14 -21 14 -28 0 -20 255 -527 282
-560 8 -9 31 -51 52 -93 22 -43 42 -78 46 -78 3 0 17 -21 30 -47 13 -27 47
-85 77 -130 29 -44 53 -85 53 -90 0 -5 11 -20 25 -33 14 -13 25 -29 25 -37 0
-7 5 -13 10 -13 6 0 10 -6 10 -14 0 -7 24 -47 54 -87 29 -41 60 -87 69 -104 8
-16 27 -41 41 -54 14 -14 26 -29 26 -35 0 -5 46 -70 103 -144 56 -73 107 -143
113 -154 7 -11 28 -37 48 -57 20 -20 36 -41 36 -45 0 -8 148 -188 243 -296 27
-30 75 -84 106 -120 127 -146 388 -416 586 -605 209 -201 446 -410 624 -550
35 -27 83 -67 106 -87 23 -21 47 -38 52 -38 6 0 26 -16 46 -35 20 -19 39 -35
42 -35 3 0 48 -31 99 -70 52 -38 97 -70 100 -70 7 0 25 -14 54 -41 9 -9 28
-22 42 -29 14 -7 54 -34 90 -60 36 -26 84 -58 106 -69 23 -12 50 -31 59 -41
10 -11 22 -20 28 -20 5 0 46 -24 90 -53 45 -29 103 -64 130 -77 26 -13 47 -27
47 -31 0 -3 39 -26 87 -50 49 -24 91 -47 94 -52 7 -9 152 -85 279 -146 47 -22
92 -45 100 -51 28 -18 163 -80 175 -80 7 0 17 -6 23 -13 6 -7 55 -30 109 -52
54 -21 105 -44 113 -50 8 -7 51 -25 95 -40 44 -15 108 -41 142 -56 35 -16 114
-46 175 -66 62 -20 122 -42 133 -48 11 -7 70 -27 130 -44 61 -17 118 -36 127
-41 10 -5 84 -28 165 -50 82 -22 157 -45 168 -50 21 -10 178 -48 309 -75 43
-9 86 -20 95 -25 15 -9 219 -48 366 -70 39 -6 79 -15 90 -20 28 -13 344 -55
555 -75 96 -10 184 -21 195 -25 31 -13 288 -29 678 -42 277 -9 443 -9 745 0
436 14 707 29 737 42 11 5 61 11 110 15 195 13 655 70 690 85 11 4 121 25 245
45 124 21 230 41 235 45 6 4 37 13 70 20 165 33 341 73 350 80 8 7 137 42 300
81 21 6 44 14 50 19 5 4 69 25 140 45 72 20 135 41 140 45 6 5 60 25 120 45
61 20 133 47 160 60 28 13 77 33 110 45 33 12 83 32 110 45 64 30 194 85 220
92 11 3 27 11 35 18 8 6 94 51 190 99 216 108 305 155 384 204 33 21 68 41 77
45 10 3 76 44 148 91 73 47 135 86 139 86 4 0 43 27 87 60 44 32 91 65 105 72
14 7 40 28 59 46 19 17 39 32 45 32 6 0 27 15 47 34 20 18 43 36 50 39 15 6
254 199 329 265 129 114 158 141 205 190 29 28 56 52 61 52 13 0 390 390 484
500 25 29 62 69 83 90 20 20 37 40 37 44 0 3 48 63 106 134 58 70 109 134 112
143 4 9 22 34 40 55 18 22 53 68 77 104 24 36 71 104 105 152 33 48 60 90 60
93 0 3 25 43 55 90 31 47 58 93 62 102 3 10 16 31 27 48 12 16 26 39 32 50 6
11 25 47 42 79 18 33 36 64 41 70 4 6 25 49 46 96 22 47 44 92 51 100 7 8 27
51 44 95 18 44 38 87 45 95 7 8 17 29 23 45 38 108 73 199 81 209 5 6 28 72
51 146 24 74 46 140 51 145 7 10 30 87 65 225 8 30 19 64 24 75 11 23 62 255
80 365 6 41 16 84 21 95 5 11 15 67 24 124 8 57 16 105 17 106 2 1 1034 -1145
2293 -2547 1260 -1403 2319 -2577 2355 -2610 190 -174 433 -281 703 -309 176
-19 374 11 555 82 273 107 528 349 645 610 18 41 2098 5655 4623 12476 l4589
12403 4966 0 4965 0 5174 -8782 c2846 -4831 5196 -8816 5223 -8856 266 -399
805 -550 1242 -348 392 181 634 601 586 1016 -14 116 -40 217 -80 303 -29 64
-10833 18411 -10924 18551 -63 97 -182 218 -274 279 -162 107 -346 188 -533
233 -72 18 -302 19 -5665 20 -3130 1 -5623 -2 -5665 -7z m-4073 -4995 l1002
-1424 -3342 -9030 c-1838 -4966 -3345 -9030 -3349 -9030 -15 0 -6199 6889
-6295 7013 -56 73 -119 151 -140 175 -21 24 -40 49 -43 56 -3 7 -24 35 -47 62
-23 27 -70 83 -105 124 -252 301 -647 707 -988 1013 -221 199 -265 237 -276
237 -7 0 -19 11 -28 25 -10 14 -31 35 -49 45 -17 11 -49 35 -71 55 -85 75
-379 306 -431 339 -16 11 -46 32 -65 48 -54 46 -303 229 -320 236 -8 3 -76 50
-151 104 -75 54 -140 98 -144 98 -3 0 -58 36 -121 80 -63 44 -135 91 -162 106
-26 14 -80 48 -120 75 -40 28 -80 53 -90 56 -9 3 -26 14 -37 24 -11 9 -42 29
-70 44 -27 15 -69 41 -93 57 -24 15 -62 38 -85 49 -23 12 -50 28 -59 36 -20
18 -112 70 -150 84 -16 6 -28 15 -28 20 0 6 -16 17 -37 25 -20 9 -76 40 -124
69 -48 29 -97 57 -110 61 -14 5 1762 11 3996 14 l4020 5 0 1350 0 1350 -2747
3 c-1525 1 -2748 6 -2748 11 0 4 635 1740 1411 3857 776 2117 1416 3861 1421
3877 l10 27 4881 -1 4882 0 1002 -1425z m-17912 -9044 c246 -8 378 -15 395
-23 13 -7 37 -27 53 -44 16 -18 35 -33 42 -33 7 0 28 -18 45 -40 17 -22 37
-40 44 -40 7 0 31 -19 54 -42 23 -24 66 -64 95 -90 244 -221 512 -485 709
-698 48 -52 110 -117 138 -145 28 -27 50 -55 50 -61 0 -6 18 -25 40 -43 22
-17 40 -37 40 -44 0 -7 16 -28 35 -47 45 -45 275 -320 283 -339 3 -8 23 -32
44 -54 21 -22 38 -45 38 -51 0 -7 18 -30 40 -51 22 -21 40 -43 40 -47 0 -4 43
-65 96 -135 53 -71 99 -135 102 -143 3 -8 22 -36 43 -62 22 -26 39 -50 39 -53
0 -4 24 -41 54 -83 29 -43 61 -93 71 -112 10 -19 24 -42 32 -50 20 -22 187
-299 244 -405 15 -27 47 -87 73 -133 25 -45 46 -86 46 -91 0 -4 8 -19 19 -32
10 -13 35 -62 56 -109 21 -47 43 -92 49 -100 7 -8 25 -44 40 -80 16 -36 46
-101 67 -145 21 -44 45 -100 54 -124 8 -24 20 -50 25 -56 5 -7 28 -61 50 -121
22 -60 47 -121 55 -135 8 -14 31 -77 51 -140 20 -63 43 -123 50 -134 7 -11 29
-78 49 -150 20 -71 41 -138 46 -149 11 -19 27 -74 60 -211 11 -44 24 -87 29
-96 8 -16 71 -289 86 -374 4 -22 10 -45 14 -50 9 -11 62 -320 81 -470 7 -55
16 -105 20 -110 8 -11 43 -338 59 -565 28 -374 22 -1160 -11 -1555 -20 -247
-40 -431 -49 -450 -4 -11 -14 -63 -20 -115 -17 -145 -68 -446 -79 -467 -5 -10
-19 -67 -31 -128 -27 -139 -60 -277 -70 -290 -4 -5 -13 -32 -20 -60 -23 -93
-62 -220 -70 -230 -4 -5 -24 -64 -45 -130 -20 -66 -43 -127 -50 -135 -7 -8
-15 -24 -18 -35 -13 -47 -51 -145 -81 -210 -19 -38 -46 -99 -62 -135 -15 -36
-33 -71 -39 -79 -5 -7 -26 -46 -46 -85 -51 -104 -130 -242 -178 -313 -22 -34
-41 -66 -41 -71 0 -5 -11 -19 -25 -32 -14 -13 -25 -27 -25 -32 0 -18 -223
-319 -241 -326 -5 -2 -9 -8 -9 -12 0 -10 -34 -49 -97 -114 -24 -24 -43 -47
-43 -52 0 -5 -80 -87 -178 -182 -97 -95 -195 -191 -217 -213 -22 -21 -45 -39
-52 -39 -6 0 -22 -13 -36 -30 -14 -16 -43 -42 -65 -57 -22 -15 -94 -70 -161
-120 -67 -51 -126 -93 -131 -93 -4 0 -27 -16 -50 -35 -23 -19 -46 -35 -51 -35
-5 0 -35 -17 -66 -37 -76 -50 -210 -124 -303 -169 -41 -19 -105 -51 -141 -70
-37 -19 -73 -34 -80 -34 -8 0 -41 -14 -73 -30 -33 -17 -110 -46 -170 -65 -61
-20 -126 -42 -144 -51 -18 -8 -87 -28 -155 -45 -67 -16 -129 -34 -138 -39 -24
-13 -251 -56 -399 -75 -69 -9 -132 -20 -141 -25 -89 -47 -1285 -47 -1394 -1
-11 5 -94 19 -185 31 -174 23 -341 54 -375 69 -11 5 -83 23 -160 41 -77 18
-151 39 -165 46 -14 6 -77 27 -140 45 -63 18 -131 40 -150 50 -19 10 -62 27
-95 38 -61 20 -119 43 -210 85 -27 13 -75 34 -105 47 -30 12 -59 26 -65 30 -5
4 -84 45 -175 92 -91 46 -183 96 -205 112 -22 15 -50 31 -63 36 -12 5 -60 34
-106 64 -46 30 -88 55 -93 55 -4 0 -26 16 -47 35 -22 19 -44 35 -48 35 -5 0
-51 31 -103 70 -52 38 -96 70 -98 70 -3 0 -22 16 -43 35 -21 19 -42 35 -47 35
-9 0 -68 49 -142 117 -16 16 -35 30 -42 33 -23 10 -230 197 -387 350 -211 206
-556 583 -556 608 0 6 -13 21 -29 34 -16 13 -41 42 -55 66 -15 24 -33 45 -41
49 -8 3 -15 9 -15 15 0 7 -90 132 -139 194 -5 6 -16 25 -25 42 -9 18 -20 32
-25 32 -4 0 -14 12 -22 28 -7 15 -42 68 -76 118 -35 51 -63 97 -63 103 0 6 -9
20 -20 31 -11 11 -37 51 -57 88 -20 37 -44 78 -55 92 -32 44 -329 633 -343
680 -4 14 -16 41 -26 60 -22 41 -89 210 -89 225 0 6 -9 26 -19 46 -10 19 -34
80 -51 134 -18 55 -39 109 -46 120 -6 11 -28 81 -49 155 -20 74 -41 144 -47
154 -12 22 -35 107 -68 246 -12 52 -26 100 -30 105 -8 11 -26 94 -66 305 -14
74 -30 144 -35 155 -10 24 -53 288 -69 430 -6 55 -15 109 -20 120 -12 26 -46
366 -65 655 -22 324 -30 965 -16 1250 17 350 58 755 80 805 5 11 15 56 21 100
16 112 59 326 70 350 4 11 25 88 45 170 21 83 45 168 55 190 10 22 32 90 50
150 17 61 37 119 44 130 7 11 25 54 41 95 47 129 50 134 68 160 9 13 17 29 17
33 0 14 52 130 65 147 7 8 27 49 45 90 19 41 41 84 51 95 9 11 29 45 44 75 15
30 44 80 64 110 20 30 44 71 54 90 22 42 207 295 242 330 14 14 25 30 25 35 0
6 22 35 49 65 28 30 69 77 93 105 66 76 398 405 410 405 5 0 25 15 43 33 55
53 125 112 137 116 6 2 52 35 102 72 50 38 95 69 101 69 5 0 20 10 31 23 12
12 35 29 50 37 16 8 54 31 84 52 30 20 78 48 107 62 29 15 55 31 58 37 4 5 34
22 68 38 34 15 79 39 100 54 20 14 74 39 118 56 45 17 92 40 106 51 14 11 32
20 39 20 13 0 41 12 159 66 28 12 86 35 130 50 44 14 103 37 132 50 43 19 109
39 268 82 11 2 25 9 32 14 6 5 85 27 175 49 89 21 172 43 183 49 23 10 174 42
315 65 52 9 104 20 115 25 37 16 265 49 510 75 88 9 169 21 180 25 29 13 339
35 720 53 167 8 995 6 1320 -3z"/>
</g>
</svg>
